<svg width="163" height="50" viewBox="0 0 163 50" fill="none" xmlns="http://www.w3.org/2000/svg">
<path d="M65.8 33V16.008H69.232V29.832H77.848V33H65.8ZM79.57 33V20.352H82.93V33H79.57ZM81.25 19.08C80.626 19.08 80.122 18.896 79.738 18.528C79.354 18.144 79.162 17.656 79.162 17.064C79.162 16.44 79.362 15.936 79.762 15.552C80.162 15.168 80.666 14.976 81.274 14.976C81.834 14.976 82.314 15.168 82.714 15.552C83.13 15.92 83.338 16.416 83.338 17.04C83.338 17.648 83.138 18.144 82.738 18.528C82.354 18.896 81.858 19.08 81.25 19.08ZM85.5934 33V20.352H88.7374L88.9054 21.816C89.2574 21.384 89.6574 21.048 90.1054 20.808C90.5694 20.552 91.0334 20.376 91.4974 20.28C91.9774 20.184 92.4094 20.136 92.7934 20.136C94.0094 20.136 94.9534 20.4 95.6254 20.928C96.3134 21.456 96.8014 22.168 97.0894 23.064C97.3934 23.944 97.5454 24.928 97.5454 26.016V33H94.1854V26.448C94.1854 26.064 94.1534 25.68 94.0894 25.296C94.0254 24.912 93.9054 24.56 93.7294 24.24C93.5694 23.92 93.3374 23.664 93.0334 23.472C92.7294 23.28 92.3294 23.184 91.8334 23.184C91.1934 23.184 90.6574 23.344 90.2254 23.664C89.7934 23.984 89.4734 24.416 89.2654 24.96C89.0574 25.504 88.9534 26.104 88.9534 26.76V33H85.5934ZM105.909 33.168C104.581 33.168 103.453 32.904 102.525 32.376C101.597 31.848 100.885 31.104 100.389 30.144C99.8927 29.168 99.6447 28.032 99.6447 26.736C99.6447 25.424 99.9007 24.28 100.413 23.304C100.925 22.312 101.645 21.536 102.573 20.976C103.517 20.416 104.629 20.136 105.909 20.136C106.869 20.136 107.709 20.296 108.429 20.616C109.165 20.936 109.781 21.384 110.277 21.96C110.789 22.536 111.165 23.208 111.405 23.976C111.661 24.728 111.781 25.544 111.765 26.424C111.765 26.648 111.757 26.864 111.741 27.072C111.725 27.28 111.693 27.488 111.645 27.696H102.981C103.029 28.176 103.165 28.616 103.389 29.016C103.613 29.416 103.925 29.736 104.325 29.976C104.741 30.2 105.253 30.312 105.861 30.312C106.261 30.312 106.629 30.272 106.965 30.192C107.301 30.096 107.589 29.952 107.829 29.76C108.069 29.568 108.237 29.344 108.333 29.088H111.645C111.437 30.032 111.045 30.808 110.469 31.416C109.909 32.024 109.229 32.472 108.429 32.76C107.629 33.032 106.789 33.168 105.909 33.168ZM103.053 25.344H108.549C108.533 24.912 108.421 24.512 108.213 24.144C108.021 23.76 107.725 23.456 107.325 23.232C106.941 22.992 106.445 22.872 105.837 22.872C105.229 22.872 104.717 22.992 104.301 23.232C103.901 23.472 103.597 23.784 103.389 24.168C103.197 24.536 103.085 24.928 103.053 25.344ZM113.929 33V20.352H116.953L117.241 21.768C117.561 21.32 117.913 20.984 118.297 20.76C118.697 20.52 119.097 20.36 119.497 20.28C119.897 20.2 120.265 20.16 120.601 20.16C121.353 20.16 122.017 20.304 122.593 20.592C123.169 20.88 123.633 21.344 123.985 21.984C124.321 21.52 124.689 21.16 125.089 20.904C125.489 20.632 125.913 20.44 126.361 20.328C126.809 20.216 127.265 20.16 127.729 20.16C128.705 20.16 129.489 20.368 130.081 20.784C130.689 21.184 131.129 21.744 131.401 22.464C131.689 23.184 131.833 24.024 131.833 24.984V33H128.473V25.872C128.473 25.584 128.457 25.288 128.425 24.984C128.393 24.68 128.313 24.392 128.185 24.12C128.073 23.848 127.897 23.624 127.657 23.448C127.433 23.272 127.113 23.184 126.697 23.184C126.297 23.184 125.961 23.272 125.689 23.448C125.417 23.624 125.201 23.864 125.041 24.168C124.881 24.456 124.761 24.776 124.681 25.128C124.617 25.464 124.585 25.808 124.585 26.16V33H121.225V25.848C121.225 25.576 121.209 25.288 121.177 24.984C121.145 24.68 121.073 24.392 120.961 24.12C120.849 23.848 120.665 23.624 120.409 23.448C120.169 23.272 119.833 23.184 119.401 23.184C118.809 23.184 118.353 23.36 118.033 23.712C117.729 24.048 117.529 24.456 117.433 24.936C117.337 25.4 117.289 25.832 117.289 26.232V33H113.929ZM138.375 33.168C137.799 33.168 137.239 33.096 136.695 32.952C136.167 32.792 135.695 32.552 135.279 32.232C134.863 31.912 134.535 31.512 134.295 31.032C134.055 30.552 133.935 29.992 133.935 29.352C133.935 28.488 134.111 27.8 134.463 27.288C134.815 26.76 135.287 26.36 135.879 26.088C136.471 25.816 137.151 25.632 137.919 25.536C138.703 25.44 139.511 25.392 140.343 25.392H142.167C142.167 24.928 142.079 24.52 141.903 24.168C141.743 23.8 141.495 23.52 141.159 23.328C140.823 23.12 140.391 23.016 139.863 23.016C139.527 23.016 139.199 23.064 138.879 23.16C138.575 23.24 138.319 23.36 138.111 23.52C137.903 23.68 137.767 23.888 137.703 24.144H134.295C134.391 23.44 134.615 22.84 134.967 22.344C135.319 21.832 135.759 21.416 136.287 21.096C136.815 20.776 137.391 20.544 138.015 20.4C138.655 20.24 139.311 20.16 139.983 20.16C141.823 20.16 143.183 20.688 144.063 21.744C144.943 22.784 145.383 24.264 145.383 26.184V33H142.359L142.311 31.368C141.911 31.928 141.455 32.336 140.943 32.592C140.447 32.848 139.967 33.008 139.503 33.072C139.039 33.136 138.663 33.168 138.375 33.168ZM139.143 30.504C139.703 30.504 140.215 30.392 140.679 30.168C141.143 29.944 141.511 29.64 141.783 29.256C142.055 28.872 142.191 28.44 142.191 27.96V27.648H139.887C139.551 27.648 139.223 27.664 138.903 27.696C138.599 27.728 138.319 27.792 138.063 27.888C137.823 27.968 137.631 28.104 137.487 28.296C137.343 28.488 137.271 28.744 137.271 29.064C137.271 29.384 137.351 29.656 137.511 29.88C137.687 30.088 137.919 30.248 138.207 30.36C138.495 30.456 138.807 30.504 139.143 30.504ZM148.008 33V20.352H151.152L151.32 21.816C151.672 21.384 152.072 21.048 152.52 20.808C152.984 20.552 153.448 20.376 153.912 20.28C154.392 20.184 154.824 20.136 155.208 20.136C156.424 20.136 157.368 20.4 158.04 20.928C158.728 21.456 159.216 22.168 159.504 23.064C159.808 23.944 159.96 24.928 159.96 26.016V33H156.6V26.448C156.6 26.064 156.568 25.68 156.504 25.296C156.44 24.912 156.32 24.56 156.144 24.24C155.984 23.92 155.752 23.664 155.448 23.472C155.144 23.28 154.744 23.184 154.248 23.184C153.608 23.184 153.072 23.344 152.64 23.664C152.208 23.984 151.888 24.416 151.68 24.96C151.472 25.504 151.368 26.104 151.368 26.76V33H148.008Z" fill="white"/>
<path d="M37.46 3.35732L31.5792 15.7376L44.5394 15.9978L19.8584 49.4899C21.3813 49.8032 22.93 49.9741 24.4845 50.0002C25.0557 50.0002 25.627 50.0002 26.1931 49.9695L35.884 38.0333L30.9518 49.2908C35.7995 48.1032 40.1808 45.4905 43.5313 41.7894C46.8817 38.0884 49.0479 33.4684 49.7508 28.5246C50.4537 23.5808 49.6611 18.5396 47.4751 14.0506C45.2891 9.56146 41.8099 5.83002 37.4855 3.33691L37.46 3.35732Z" fill="#FCDE70"/>
<path d="M19.8126 33.0881L24.9538 22.9992L15.0794 22.8053L25.4945 0.00436294C23.4359 -0.0339572 21.3804 0.180271 19.3739 0.642258L9.34649 22.9737L16.2321 1.60164C11.2089 3.48261 6.9237 6.93055 4.00986 11.4359C1.09602 15.9412 -0.291902 21.265 0.0512074 26.6203C0.394316 31.9757 2.45025 37.0786 5.91518 41.1748C9.38011 45.271 14.0702 48.1433 19.2923 49.3672L25.6832 33.2208L19.8126 33.0881Z" fill="#FCDE70"/>
</svg>
