<svg width="50" height="50" viewBox="0 0 50 50" fill="none" xmlns="http://www.w3.org/2000/svg">
<path d="M37.46 3.35713L31.5792 15.7374L44.5394 15.9977L19.8584 49.4897C21.3813 49.8031 22.93 49.9739 24.4845 50C25.0557 50 25.627 50 26.1931 49.9694L35.884 38.0331L30.9518 49.2906C35.7995 48.103 40.1808 45.4904 43.5313 41.7893C46.8817 38.0882 49.0479 33.4682 49.7508 28.5244C50.4537 23.5806 49.6611 18.5395 47.4751 14.0504C45.2891 9.56127 41.8099 5.82984 37.4855 3.33673L37.46 3.35713Z" fill="#FCDE70"/>
<path d="M19.8126 33.0881L24.9538 22.9992L15.0794 22.8053L25.4945 0.00436294C23.4359 -0.0339572 21.3804 0.180271 19.3739 0.642258L9.34649 22.9737L16.2321 1.60164C11.2089 3.48261 6.9237 6.93055 4.00986 11.4359C1.09602 15.9412 -0.291902 21.265 0.0512074 26.6203C0.394316 31.9757 2.45025 37.0786 5.91518 41.1748C9.38011 45.271 14.0702 48.1433 19.2923 49.3672L25.6832 33.2208L19.8126 33.0881Z" fill="#FCDE70"/>
</svg>
